<?xml version="1.0" standalone="no"?>
<!DOCTYPE svg PUBLIC "-//W3C//DTD SVG 20010904//EN"
 "http://www.w3.org/TR/2001/REC-SVG-20010904/DTD/svg10.dtd">
<svg version="1.0" xmlns="http://www.w3.org/2000/svg"
 width="225.000000pt" height="300.000000pt" viewBox="0 0 225.000000 215.000000"
 preserveAspectRatio="xMidYMid meet">
<metadata>
Created by potrace 1.16, written by Peter Selinger 2001-2019
</metadata>
<g transform="translate(0.000000,250.000000) scale(0.100000,-0.12322222000)"
fill="#cccccc" stroke="none">
<path d="M95 2155 l-25 -24 0 -1006 0 -1006 25 -24 c28 -29 51 -31 85 -8 14
10 229 193 479 407 250 214 460 389 466 389 6 0 216 -175 466 -389 250 -214
465 -397 479 -407 34 -23 57 -21 85 8 l25 24 0 1006 0 1006 -25 24 -24 25
-1006 0 -1006 0 -24 -25z m1945 -985 c0 -478 -2 -870 -5 -870 -3 0 -202 169
-443 375 -365 313 -442 375 -467 375 -25 0 -102 -62 -467 -375 -241 -206 -440
-375 -443 -375 -3 0 -5 392 -5 870 l0 870 915 0 915 0 0 -870z"/>
</g>
</svg>
